<?xml version="1.0" standalone="no"?><!DOCTYPE svg PUBLIC "-//W3C//DTD SVG 1.1//EN" "http://www.w3.org/Graphics/SVG/1.1/DTD/svg11.dtd"><svg t="1612858095524" class="icon" viewBox="0 0 1024 1024" version="1.1" xmlns="http://www.w3.org/2000/svg" p-id="2202" xmlns:xlink="http://www.w3.org/1999/xlink" width="128" height="128"><defs><style type="text/css"></style></defs><path d="M368.1 501.6h45.2c21-0.1 41-8.2 56.4-22.3 16.3-14.9 25.5-36.8 26-58.7 0.1-4.2 0-8.4 0-12.7V283.8c0-12.4-10.5-23-23-23H357.6c-5.8 0-11.6-0.1-17.5 0.2-20.2 1-40.1 5.3-58.9 12.7-41.6 16.4-77.8 43.1-110.2 73.5-34.2 32.2-64.2 68.7-92.1 106.4-2.4 3.2-4.7 6.5-7.1 9.8-0.8 0.9-1.6 2-2.3 3.1-0.1 0.2-0.2 0.3-0.3 0.5-1.3 1.9-2.2 4.3-2.7 6.8-0.4 1.6-0.5 3.2-0.5 4.8 0 0.5 0.1 0.9 0.1 1.4 0.1 1.7 0.3 3.3 0.7 4.8 0.2 0.9 0.6 1.8 0.9 2.6 1.1 2.8 2.6 5.3 4.8 7.4 1.4 1.5 3.1 2.8 4.8 3.7 0.8 0.4 1.7 0.8 2.5 1.2 1.9 0.9 3.9 1.4 6.1 1.7 1.6 0.2 3.2 0.3 4.8 0.2h277.4z m-155.8-46h-77.4c23.3-29.4 48.3-57.6 76.2-82.7 7.6-6.9 15.5-13.5 23.6-19.8 17.6-13.3 36.3-25.1 56.5-34 12.9-5.2 26.4-9.2 40.2-11.3 16.6-1.8 33.7-0.9 50.3-0.9h68.1v98.6c0 6.2 0.3 12.5-0.2 18.6-0.6 3.1-1.4 6.1-2.5 9.1-1.4 2.9-3 5.6-4.8 8.3-2 2.4-4.2 4.5-6.6 6.6-2.6 1.8-5.4 3.4-8.3 4.8-2.9 1.1-6 1.9-9 2.5-4 0.3-8 0.2-12 0.2H212.3z m313.1-292v251.6c0.1 21 8.2 41 22.3 56.4 14.9 16.3 36.8 25.5 58.7 26 4.2 0.1 8.4 0 12.7 0h124.1c12.4 0 23-10.5 23-23V359.5c0-5.8 0.1-11.6-0.2-17.5-1-20.2-5.3-40.1-12.7-58.9-16.4-41.6-43.1-77.8-73.5-110.2-32.2-34.2-68.7-64.2-106.4-92.1-3.2-2.4-6.5-4.7-9.8-7.1-0.9-0.8-2-1.6-3.1-2.3-0.2-0.1-0.3-0.2-0.5-0.3-1.9-1.3-4.3-2.2-6.8-2.7-1.6-0.4-3.2-0.5-4.8-0.5-0.5 0-0.9 0.1-1.4 0.1-1.7 0.1-3.3 0.3-4.8 0.7-0.9 0.2-1.8 0.6-2.6 0.9-2.8 1.1-5.3 2.6-7.4 4.8-1.5 1.4-2.8 3.1-3.7 4.8-0.4 0.8-0.8 1.7-1.2 2.5-0.9 1.9-1.4 3.9-1.7 6.1-0.2 1.6-0.3 3.2-0.2 4.8v71zM654.1 213c6.9 7.6 13.5 15.5 19.8 23.6 13.3 17.6 25.1 36.3 34 56.5 5.2 12.9 9.2 26.4 11.3 40.2 1.8 16.6 0.9 33.7 0.9 50.3v68.1h-98.6c-6.2 0-12.5 0.3-18.6-0.2-3.1-0.6-6.1-1.4-9.1-2.5-2.9-1.4-5.6-3-8.3-4.8-2.4-2-4.5-4.2-6.6-6.6-1.8-2.6-3.4-5.4-4.8-8.3-1.1-2.9-1.9-6-2.5-9-0.3-4-0.2-8-0.2-12V136.9c29.4 23.2 57.5 48.2 82.7 76.1z m300.7 344.4c1.3-1.9 2.2-4.3 2.7-6.8 0.4-1.6 0.5-3.2 0.5-4.8 0-0.5-0.1-0.9-0.1-1.4-0.1-1.7-0.3-3.3-0.7-4.8-0.2-0.9-0.6-1.8-0.9-2.6-1.1-2.8-2.6-5.3-4.8-7.4-1.4-1.5-3.1-2.8-4.8-3.7-0.8-0.4-1.7-0.8-2.5-1.2-1.9-0.9-3.9-1.4-6.1-1.7-1.6-0.2-3.2-0.3-4.8-0.2H611c-21.2 0.1-41.5 8.3-56.9 22.8-16 15-25.2 36.7-25.5 58.6-0.1 4.2 0 8.4 0 12.6v123.9c0 12.4 10.5 23 23 23h115.1c5.8 0 11.6 0.1 17.5-0.2 20.2-1 40.1-5.3 58.9-12.7 41.6-16.4 77.8-43.1 110.2-73.5 34.2-32.2 64.2-68.7 92.1-106.4 2.4-3.2 4.7-6.5 7.1-9.8 0.8-0.9 1.6-2 2.3-3.1-0.2-0.3-0.1-0.4 0-0.6zM813 651.5c-7.6 6.9-15.5 13.5-23.6 19.8-17.6 13.3-36.3 25.1-56.5 34-12.9 5.2-26.4 9.2-40.2 11.3-16.6 1.8-33.7 0.9-50.3 0.9h-68.1v-98.7c0-6.1-0.3-12.4 0.2-18.6 0.6-3.1 1.4-6.1 2.5-9.1 1.4-2.9 3-5.6 4.8-8.3 2-2.4 4.2-4.5 6.6-6.6 2.6-1.8 5.4-3.4 8.3-4.8 2.9-1.1 6-1.9 9-2.5 4-0.3 8-0.2 12-0.2h271.4c-23.2 29.5-48.3 57.7-76.1 82.8zM498.7 931.6V609.2c-0.1-21-8.2-41-22.3-56.4-14.9-16.3-36.8-25.5-58.7-26-4.2-0.1-8.4 0-12.7 0H280.9c-12.4 0-23 10.5-23 23v115.1c0 5.8-0.1 11.6 0.2 17.5 1 20.2 5.3 40.1 12.7 58.9 16.4 41.6 43.1 77.8 73.5 110.2 32.2 34.2 68.7 64.2 106.4 92.1 3.2 2.4 6.5 4.7 9.8 7.1 0.9 0.8 2 1.6 3.1 2.3 0.2 0.1 0.3 0.2 0.5 0.3 1.9 1.3 4.3 2.2 6.8 2.7 1.6 0.4 3.2 0.5 4.8 0.5 0.5 0 0.9-0.1 1.4-0.1 1.7-0.1 3.3-0.3 4.8-0.7 0.9-0.2 1.8-0.6 2.6-0.9 2.8-1.1 5.3-2.6 7.4-4.8 1.5-1.4 2.8-3.1 3.7-4.8 0.4-0.8 0.8-1.7 1.2-2.5 0.9-1.9 1.4-3.9 1.7-6.1 0.3-1.8 0.4-3.4 0.2-5zM370 811.4c-6.9-7.6-13.5-15.5-19.8-23.5-13.3-17.6-25.1-36.3-34-56.5-5.2-12.9-9.2-26.4-11.3-40.1-1.8-16.6-0.9-33.7-0.9-50.3v-68.1h98.6c6.2 0 12.5-0.3 18.6 0.2 3.1 0.6 6.1 1.4 9.1 2.5 2.9 1.4 5.6 3 8.3 4.8 2.4 2 4.5 4.2 6.6 6.6 1.8 2.6 3.4 5.4 4.8 8.3 1.1 2.9 1.9 6 2.5 9 0.3 4 0.2 8 0.2 12v271.4c-29.4-23.4-57.5-48.4-82.7-76.3z" p-id="2203" fill="#cdcdcd"></path></svg>