<?xml version="1.0" standalone="no"?><!DOCTYPE svg PUBLIC "-//W3C//DTD SVG 1.1//EN" "http://www.w3.org/Graphics/SVG/1.1/DTD/svg11.dtd"><svg t="1611733358696" class="icon" viewBox="0 0 1024 1024" version="1.1" xmlns="http://www.w3.org/2000/svg" p-id="2577" xmlns:xlink="http://www.w3.org/1999/xlink" width="128" height="128"><defs><style type="text/css"></style></defs><path d="M716.721231 1022.660923a566.153846 566.153846 0 0 1-87.788308-6.774154c63.015385-30.247385 105.156923-72.546462 112.994462-120.083692h3.072l11.815384-0.630154a6.262154 6.262154 0 0 1 1.417846 0l11.500308-0.945231h0.945231q5.789538-0.551385 11.579077-1.260307h1.929846c3.741538-0.472615 7.443692-0.945231 11.185231-1.496616l1.811692-0.236307q17.604923-2.56 35.012923-6.262154l1.575385-0.354462c3.584-0.748308 7.168-1.575385 10.712615-2.441846l1.024-0.275692q10.791385-2.638769 21.504-5.789539l1.024-0.275692c3.426462-1.024 6.774154-2.048 10.082462-3.190154l1.142153-0.393846c3.426462-1.063385 6.695385-2.205538 10.003693-3.426462h0.236307c3.387077-1.220923 6.774154-2.441846 10.121847-3.938461 3.190154-1.260308 6.380308-2.323692 9.452307-3.702154a1.339077 1.339077 0 0 1 0.551385 0c61.243077-27.017846 103.030154-63.330462 112.128-108.228923h1.890461v107.441231c-0.039385 89.6-137.452308 162.264615-306.924307 162.264615z m26.584615-192.669538v-126.03077h1.693539c8.192-0.393846 16.423385-0.945231 24.576-1.693538h0.94523l11.579077-1.181539 1.929846-0.236307q18.077538-2.087385 35.997539-5.513846l1.142154-0.236308a444.573538 444.573538 0 0 0 45.686154-11.106462l1.024-0.275692c3.426462-1.024 6.774154-2.048 10.082461-3.190154l1.142154-0.393846c3.426462-1.063385 6.695385-2.205538 10.003692-3.426461h0.236308c3.387077-1.181538 6.774154-2.441846 10.121846-3.938462 3.190154-1.299692 6.380308-2.402462 9.452308-3.702154a1.457231 1.457231 0 0 1 0.551384 0.236308c61.243077-25.403077 103.030154-63.527385 112.128-108.425846h1.890462v107.52c0.118154 84.834462-123.116308 154.505846-280.182154 161.595077z m42.692923-196.489847q-20.834462 2.56-42.692923 3.584V313.659077c157.065846 7.168 280.300308 76.8 280.300308 161.673846v4.214154c-3.702154 75.185231-103.936 137.649231-237.607385 153.954461zM348.396308 1022.660923c-192.078769 0-347.805538-82.313846-347.805539-183.926154v-124.652307H2.756923c10.358154 51.2 57.659077 93.971692 127.015385 124.691692a1.929846 1.929846 0 0 1 0.590769 0.236308c3.584 1.536 7.168 2.993231 10.791385 4.450461q17.723077 6.774154 35.879384 12.327385l1.142154 0.354461c8.073846 2.402462 16.265846 4.608 24.457846 6.577231l1.142154 0.275692c3.938462 0.984615 8.073846 1.890462 12.130462 2.796308l1.811692 0.393846q6.144 1.299692 12.288 2.481231l1.260308 0.236308c4.292923 0.787692 8.546462 1.614769 12.8 2.284307h0.393846c4.332308 0.669538 8.625231 1.339077 12.918154 1.929846l2.048 0.275693c4.253538 0.590769 8.467692 1.142154 12.72123 1.654154l2.166154 0.236307q6.577231 0.787692 13.115077 1.417846h0.984615l13.075693 1.063385h1.614769c4.411077 0.275692 8.822154 0.551385 13.272615 0.748308h2.481231c4.411077 0.196923 8.861538 0.354462 13.272616 0.472615h2.205538c14.532923 0.315077 29.105231 0 43.598769-0.472615h2.56q14.020923-0.708923 27.884308-1.929846h0.984615c4.411077-0.433231 8.822154-0.905846 13.193846-1.417847l2.166154-0.236307c4.292923-0.472615 8.467692-1.024 12.681846-1.614769l2.008616-0.354462q13.115077-1.851077 26.112-4.332308l1.260308-0.236307 12.366769-2.481231 1.811692-0.354462 12.051692-2.835692 1.142154-0.275692c8.270769-1.969231 16.344615-4.214154 24.497231-6.577231l1.142154-0.354462c3.938462-1.142154 7.601231-2.363077 11.382154-3.584l1.299692-0.393846c3.938462-1.260308 7.561846-2.56 11.303385-3.938461h0.315077a518.025846 518.025846 0 0 0 22.331076-8.625231 2.166154 2.166154 0 0 1 0.551385-0.236308c69.395692-30.680615 116.736-73.570462 127.094154-124.691692h2.126769v124.849231c0.039385 101.454769-155.687385 183.768615-347.805538 183.768615z m0-217.639385c-192.078769 0-347.805538-82.313846-347.805539-183.926153v-123.628308H2.756923c10.279385 53.169231 57.659077 92.987077 127.094154 123.628308a9.609846 9.609846 0 0 1 0.551385 0.787692c3.544615 1.496615 7.089231 2.441846 10.712615 3.938461s7.876923 2.953846 11.815385 4.371693h0.275692q11.815385 4.253538 24.064 7.876923l1.142154 0.354461q25.560615 7.561846 51.790769 12.563693l1.260308 0.236307 12.8 2.284308h0.393846c4.292923 0.748308 8.625231 1.417846 12.996923 1.969231l1.969231 0.275692 12.72123 1.969231h1.969231q6.577231 0.748308 13.115077 1.378461h0.984615l13.075693 1.063385h1.614769c4.411077 0.315077 8.822154 0.551385 13.272615 0.748308h2.481231c4.411077 0.196923 8.861538 0.393846 13.272616 0.512h2.205538q14.060308 0.315077 28.120615 0h2.244923q6.616615 0 13.233231-0.433231h2.520616c4.450462 0 8.861538-0.472615 13.272615-0.748308h1.575385l13.075692-1.063384h0.984615c4.411077-0.393846 8.822154-0.866462 13.193846-1.378462l2.166154-0.236308c9.255385-1.102769 18.432-2.402462 27.569231-3.938461h0.393846l12.8-2.284308 1.260308-0.236307q13.154462-2.520615 26.230154-5.671385l1.142154-0.275692c8.270769-2.048 16.344615-4.214154 24.49723-6.577231l1.142154-0.354462c3.938462-1.142154 7.601231-2.323692 11.382154-3.584l1.299692-0.43323c3.938462-1.260308 7.561846-2.520615 11.303385-3.938462h0.315077q11.303385-3.938462 22.370461-8.743385a1.299692 1.299692 0 0 1 0.551385-0.275692c69.395692-30.641231 116.736-70.498462 127.094154-123.628308h2.126769v123.588923c0.039385 101.454769-155.687385 183.847385-347.805538 183.847385z m0-217.678769c-192.078769 0-347.805538-82.392615-347.805539-183.926154V280.812308H2.756923c10.358154 51.2 57.659077 93.971692 127.015385 122.643692a2.166154 2.166154 0 0 1 0.590769 0.236308c7.364923 3.111385 14.848 6.025846 22.370461 8.743384h0.275693q11.815385 4.253538 24.024615 7.876923l1.142154 0.354462c8.073846 2.402462 16.265846 4.608 24.457846 6.616615l1.142154 0.354462c3.938462 0.945231 8.073846 1.851077 12.130462 2.717538l1.811692 0.393846q19.692308 4.174769 39.660308 7.128616l2.048 0.275692c4.253538 0.590769 8.467692 1.102769 12.72123 1.575385l2.166154 0.275692q6.577231 0.748308 13.115077 1.378462h0.984615c4.371692 0.393846 8.743385 0.708923 13.075693 1.024h1.614769c4.411077 0.315077 8.822154 0.590769 13.272615 0.787692h2.481231c4.411077 0.196923 8.861538 0.393846 13.272616 0.512h2.205538q14.060308 0.275692 28.120615 0h2.244923c4.411077 0 8.861538-0.236308 13.233231-0.433231h2.56q14.020923-0.669538 27.884308-1.929846h0.984615c9.373538-0.866462 18.747077-1.969231 28.041846-3.229538l2.008616-0.275693q13.115077-1.851077 26.112-4.371692l1.339077-0.236308c8.743385-1.654154 17.486769-3.544615 26.151384-5.671384l1.142154-0.275693c8.270769-2.008615 16.344615-4.214154 24.497231-6.616615l1.142154-0.354462c3.938462-1.142154 7.601231-2.323692 11.382154-3.584l1.299692-0.393846c3.938462-1.260308 7.561846-2.56 11.303385-3.938461h0.315077a367.852308 367.852308 0 0 0 22.331076-8.78277 2.481231 2.481231 0 0 1 0.551385-0.236307c69.395692-28.672 116.736-71.561846 127.094154-122.643693h2.126769v122.643693c0.039385 101.612308-155.687385 183.965538-347.805538 183.965538z m78.76923-223.389538a647.916308 647.916308 0 0 1-157.10523 0C118.547692 345.403077 4.962462 274.628923 0.866462 189.479385V184.713846C0.866462 83.101538 156.593231 0.787692 348.750769 0.787692s347.766154 82.313846 347.766154 183.926154v4.726154c-4.450462 85.267692-118.114462 156.002462-269.508923 174.552615z" p-id="2578" fill="#cdcdcd"></path></svg>