<?xml version="1.0" standalone="no"?><!DOCTYPE svg PUBLIC "-//W3C//DTD SVG 1.1//EN" "http://www.w3.org/Graphics/SVG/1.1/DTD/svg11.dtd"><svg t="1576942505726" class="icon" viewBox="0 0 1024 1024" version="1.1" xmlns="http://www.w3.org/2000/svg" p-id="3240" xmlns:xlink="http://www.w3.org/1999/xlink" width="100" height="100"><defs><style type="text/css"></style></defs><path d="M727.578947 162.115368a53.894737 53.894737 0 0 0-53.894736-53.894736H188.631579a53.894737 53.894737 0 0 0-53.894737 53.894736v673.684211a53.894737 53.894737 0 0 0 53.894737 53.894737h269.473684a53.894737 53.894737 0 1 1 0 107.789473H188.631579a161.684211 161.684211 0 0 1-161.684211-161.68421v-673.684211a161.684211 161.684211 0 0 1 161.684211-161.68421h485.052632a161.684211 161.684211 0 0 1 161.68421 161.68421v431.157895a53.894737 53.894737 0 1 1-107.789474 0v-431.157895z" p-id="3241" fill="#ffffff"></path><path d="M515.772632 332.530526c-2.694737 8.084211-5.389474 16.168421-8.623158 24.252632 16.168421 54.433684 35.570526 102.938947 58.745263 144.976842 23.713684-48.505263 36.109474-105.094737 38.265263-169.229474H515.772632z m143.36 0c-3.772632 87.309474-23.713684 161.145263-59.823158 221.507369 32.336842 44.193684 70.063158 78.147368 113.178947 102.938947l-32.336842 47.966316a385.077895 385.077895 0 0 1-113.717895-104.016842c-35.570526 42.037895-80.842105 76.530526-135.275789 102.938947l-34.492632-46.349474c58.745263-25.869474 105.094737-60.901053 138.509474-105.094736-22.635789-38.804211-41.498947-82.997895-57.667369-131.503158-9.162105 15.629474-18.863158 30.181053-28.56421 43.115789l-34.492632-43.654737c36.648421-53.355789 61.44-125.574737 74.374737-216.117894l54.972632 9.701052c-3.772632 22.635789-8.084211 44.732632-12.934737 65.212632h163.84v53.355789h-35.570526z m-364.328421 270.551579c42.037895-14.012632 84.614737-31.797895 127.730526-52.277894l8.08421 51.2c-58.206316 27.486316-122.341053 52.816842-193.482105 75.991578l-16.707368-48.505263c12.934737-5.389474 19.941053-17.246316 19.941052-35.570526V401.515789h116.951579V289.953684h-140.126316v-53.355789h195.098948v216.656842H294.804211v149.827368zM958.517895 684.840421l-316.362106 316.416H565.894737v-76.207158l316.416-316.416a53.894737 53.894737 0 0 1 76.207158 76.207158z" p-id="3242" fill="#ffffff"></path></svg>