<?xml version="1.0" standalone="no"?><!DOCTYPE svg PUBLIC "-//W3C//DTD SVG 1.1//EN" "http://www.w3.org/Graphics/SVG/1.1/DTD/svg11.dtd"><svg t="1568734009494" class="icon" viewBox="0 0 1024 1024" version="1.1" xmlns="http://www.w3.org/2000/svg" p-id="5750" width="128" height="128" xmlns:xlink="http://www.w3.org/1999/xlink"><defs><style type="text/css"></style></defs><path d="M782.8 519.5c-2.5-15.4 3.4-31 15.6-40.8 12.1-9.9 28.6-12.5 43.3-7 14.7 5.5 25.2 18.4 27.7 33.8 2.5 15.4-3.4 31-15.6 40.8-12.1 9.9-28.6 12.5-43.3 7-14.6-5.5-25.2-18.4-27.7-33.8z m-604 32.2c-16.6-6.8-28.2-22-30.6-39.7s5-35.3 19.2-46.2c14.2-10.9 33.2-13.4 49.8-6.5 16.6 6.8 28.2 22 30.6 39.7 2.3 17.7-5 35.3-19.2 46.2-14.3 10.9-33.2 13.4-49.8 6.5z m442.7-304.4c0-25 20.3-45.3 45.4-45.3 25.1 0 45.4 20.3 45.4 45.3 0 25-20.3 45.3-45.4 45.3-25 0-45.4-20.3-45.4-45.3zM409.6 512c0 56.4 45.9 102.1 102.5 102.1S614.6 568.4 614.6 512s-45.9-102.1-102.5-102.1S409.6 455.6 409.6 512z m273.2 107.9c-27 18.9-55 35.8-84 51.6-27 14.2-55 27.4-83.5 39.5-31.2-13.2-61.3-28.4-90.9-45.3-31.2-17.4-61.3-36.8-89.8-57.9-3.7-31.6-5.3-63.7-5.3-95.8 0-32.6 2.1-65.8 5.8-98.4 29.6-21.1 60.8-40 92.5-57.4 29.6-15.8 60.2-30.5 92-43.2 28 12.1 56 25.8 83 41 28 15.8 55 33.2 80.9 52.1 4.2 35.3 5.8 70.5 5.8 105.8-0.1 35.9-2.2 72.2-6.5 108z m-29.6 134.7c-30.7-6.3-60.8-14.7-90.4-25.3 18-8.4 35.4-17.4 52.8-26.8 20.1-11.1 40.2-22.1 59.2-34.7-5.2 30-12.6 58.9-21.6 86.8z m-53.9 109.5c-11.6 15.8-25.4 29.5-40.2 40-7.4 4.7-15.3 9.5-23.8 12.1-7.9 2.6-16.4 4.2-24.8 4.2-8.5 0-16.9-1.6-24.8-4.2-7.9-2.6-15.9-6.8-23.8-11.6-15.3-10.5-29.1-24.2-40.7-40-16.9-22.1-30.1-47.4-41.2-74.2 43.9-8.4 86.7-21.6 127.9-37.4 42.3 17.4 85.6 31 131.1 40.5-11.1 25.3-23.8 49-39.7 70.6zM343 665.1c19.6 13.2 39.6 25.8 60.2 37.4 18 10 37 20 55.5 28.9-30.7 10-61.3 17.9-93 23.2-9.4-28.9-16.8-58.9-22.7-89.5z m23.8-397.8c0-0.5 0.5-1.1 0.5-1.6 1.1 0 1.6 0 2.6 0.5 31.7 6.3 62.9 14.7 94.1 25.3-19 8.4-38 17.9-56 27.9-21.7 12.1-43.3 24.7-63.9 37.9 5.3-30.5 12.7-60.5 22.7-90zM900 592.5c-6.9-15.3-14.8-30-23.8-43.7-7.4 10.5-18.5 18.4-31.2 22.6 7.4 12.1 13.7 24.2 19.6 36.8 7.9 17.9 13.2 36.8 14.8 54.7 0.5 8.9 0 17.9-1.6 26.3-1.6 8.4-4.8 16.3-9 23.7-4.2 7.4-9.5 13.7-15.9 19.5-6.3 5.8-14.3 10.5-22.2 14.7-16.4 7.9-35.4 12.6-55 15.3-26.4 3.2-53.9 2.1-81.4-1.1 13.2-41 22.2-82.6 28-125.2 28-20.5 55-42.6 80.3-66.8-12.2-4.7-22.2-13.2-29.1-24.2-14.8 14.2-29.6 27.4-45.4 40.5 2.1-24.7 3.2-49.5 3.2-73.7 0-23.7-1.1-46.8-2.6-70 15.3 12.6 29.6 26.3 43.9 40 6.3-11.1 15.9-20 27.5-25.3-24.3-23.7-49.7-45.8-76.6-65.8-4.8-33.7-11.1-66.8-20.1-99.5-9.5 7.9-22.2 12.6-35.9 12.6h-3.7c4.8 17.4 8.5 35.3 12.2 53.2-18-12.1-37-23.2-55.5-33.7-16.9-10-34.9-18.9-52.3-27.9 17.4-5.8 35.4-11.1 53.4-15.3-6.9-9.5-10.6-20.5-10.6-32.6 0-2.6 0-4.7 0.5-6.8-33.3 7.9-66.1 18.4-97.8 30.5-42.3-17.4-86.1-31.6-131.6-41 11.1-25.3 23.8-49.5 39.6-70.5 11.6-15.8 25.4-29.5 40.7-40 7.9-4.7 15.9-8.9 23.8-11.6 8.5-2.6 16.4-4.2 24.8-4.2 8.5 0 16.9 1.6 24.8 4.2 7.9 2.6 15.9 7.4 23.8 12.1 14.8 10.5 28.5 24.2 40.2 40 10.6 14.7 20.1 30.5 28.5 46.8 10-9.5 23.3-15.3 37.5-15.8-9.5-18.9-20.6-37.9-33.8-55.3-13.7-18.4-30.1-35.3-50.2-48.9-10-6.8-21.1-12.6-33.3-16.8-12.2-4.2-24.8-6.3-38-6.3s-25.9 2.6-37.5 6.3c-12.2 4.2-22.7 10-33.3 16.8-20.1 13.7-36.5 31-49.7 48.9-20.1 27.4-35.4 56.8-47.6 87.4-32.2-4.2-65.5-5.8-98.8-2.1-22.7 2.6-45.4 8.4-67.6 18.9-10.6 5.8-21.7 12.1-31.2 20.5s-18 18.4-24.3 29.5c-6.3 11.1-10.6 23.7-13.2 35.8-2.1 12.6-2.6 24.7-2.1 36.8 2.1 24.2 9 46.8 18 67.9 6.3 14.7 13.7 28.4 22.2 41.6 7.4-11.6 19-20.5 32.2-24.7-6.3-10.5-12.2-21.6-17.4-32.6-7.9-17.9-13.2-36.3-15.3-54.7-0.5-8.9-0.5-17.9 1.1-26.3 1.6-8.4 4.8-16.3 8.5-23.7 4.2-7.4 9.5-13.7 15.9-19.5 6.3-5.8 14.3-10.5 22.2-14.7 16.4-7.9 35.4-13.2 55-15.3 26.4-3.2 53.4-2.6 80.9 0-13.2 41.6-22.2 83.7-28 126.3-26.4 19.5-52.3 41-76.1 63.7 12.7 6.3 23.3 16.3 29.1 28.9 13.2-12.6 27-24.7 41.2-36.3-1.6 23.2-2.1 45.8-2.1 68.9 0 21.6 0.5 43.7 2.1 65.3-15.3-12.6-29.6-25.8-43.9-40-7.4 12.1-18.5 21.6-31.7 26.3 25.4 25.8 52.8 49.5 81.4 71 5.3 42.1 14.3 83.7 27 124.7-28.5 2.6-57.1 2.6-84.6-1.1-19.6-2.6-38-8.4-54.4-16.8-7.9-4.2-15.3-9.5-21.7-15.3-6.3-5.8-11.6-12.6-15.3-20-3.7-7.4-6.3-15.3-7.9-23.7-1.6-8.4-1.6-17.4-0.5-26.3 2.1-17.9 7.9-36.8 16.4-54.2 6.3-12.6 13.2-25.3 21.1-37.4-13.7-4.2-25.4-12.6-33.3-23.7-9.5 14.2-17.4 28.4-24.8 44.2-9.5 20.5-16.9 43.2-19.6 67.4-1.1 12.1-1.1 24.7 1.1 36.8 2.1 12.6 6.3 24.7 12.2 36.3 6.3 11.1 14.3 21.1 23.8 30 9.5 8.4 20.1 15.3 30.7 21.1 21.7 10.5 44.4 16.8 67.1 20 34.9 4.7 69.2 3.7 103-0.5 12.7 31.6 28 62.6 49.1 91 13.7 18.4 30.1 35.3 49.7 48.9 10 6.8 21.1 12.6 33.3 16.8 12.2 4.2 24.8 6.3 37.5 6.3s25.9-2.6 38-6.3c12.2-4.2 22.7-10 33.3-16.8 20.1-13.7 36.5-30.5 50.2-48.9 20.6-27.4 35.9-56.8 48.1-87.4 32.8 4.2 66.6 5.8 100.9 1.6 22.7-2.6 45.4-8.9 67.6-18.9 10.6-5.8 21.1-12.1 30.7-20.5 9.5-8.4 18-18.4 24.3-29.5 6.3-11.1 10.6-23.7 13.2-35.8 2.1-12.6 2.6-24.7 1.6-36.8-2.4-23.9-8.7-46.5-18.3-67.6z m20.6-256.8c-2.1-12.6-6.3-24.7-12.2-36.3-6.3-11.1-14.3-21.6-23.8-30-9.5-8.4-19.6-15.3-30.7-21.1-21.7-11.1-44.4-17.4-67.1-20.5-22.7-3.2-46-4.2-68.2-3.2 3.2 6.8 4.8 14.7 4.8 23.2 0 6.3-1.1 12.1-2.6 17.4 20.6-1.1 40.7-0.5 60.2 2.1 19.6 2.6 38 7.9 54.4 16.3 7.9 4.2 15.3 9.5 21.7 14.7 6.3 5.8 11.6 12.6 15.9 20 3.7 7.4 6.9 15.3 8.5 23.7 1.6 8.4 1.6 17.4 1.1 26.3-2.1 18.4-7.4 36.8-15.9 54.7-5.3 11.1-10.6 21.6-17.4 31.6 12.7 4.7 22.7 13.7 29.6 24.7 8.5-12.6 16.4-26.3 22.7-40.5 10-20.5 16.9-43.2 19.6-66.8 1-11.6 1.6-24.2-0.6-36.3z" p-id="5751" fill="#ffffff"></path></svg>