<?xml version="1.0" standalone="no"?><!DOCTYPE svg PUBLIC "-//W3C//DTD SVG 1.1//EN" "http://www.w3.org/Graphics/SVG/1.1/DTD/svg11.dtd"><svg t="1570000653490" class="icon" viewBox="0 0 1097 1024" version="1.1" xmlns="http://www.w3.org/2000/svg" p-id="2514" xmlns:xlink="http://www.w3.org/1999/xlink" width="137.125" height="128"><defs><style type="text/css"></style></defs><path d="M755.196224 0.001463a38.911805 38.911805 0 0 0-39.277518 38.47295v947.048979c0 21.211323 17.554198 38.47295 39.277518 38.472951a38.838663 38.838663 0 0 0 39.277518-38.472951V38.474413c0-21.211323-17.554198-38.47295-39.277518-38.47295z m106.788038 21.942747a17.115343 17.115343 0 0 0-17.188486 16.822773v946.463839c0 9.215954 7.753104 16.822773 17.261628 16.822773a17.042201 17.042201 0 0 0 17.115343-16.822773V38.766983a17.042201 17.042201 0 0 0-17.115343-16.822773z m91.574399 0a17.042201 17.042201 0 0 0-17.115343 16.822773v946.463839c0 9.215954 7.753104 16.822773 17.115343 16.822773 9.508524 0 17.188485-7.606819 17.188485-16.822773V38.766983a17.042201 17.042201 0 0 0-17.188485-16.822773z m104.301193-21.942747a38.911805 38.911805 0 0 0-39.277518 38.47295v947.048979c0 21.211323 17.554198 38.47295 39.277518 38.472951a38.838663 38.838663 0 0 0 39.277517-38.472951V38.474413c0-21.211323-17.554198-38.47295-39.277517-38.47295zM572.632565 1.0986L426.128155 0.952315a69.485367 69.485367 0 0 0-70.216792 68.753942L355.472508 952.170416c0 37.887811 31.378129 68.753942 70.14365 68.827085l146.431267 0.073142a69.485367 69.485367 0 0 0 70.216792-68.753942L642.849357 69.925685a69.339082 69.339082 0 0 0-70.143649-68.753942z m-13.970215 330.092064l-118.929692-0.146285a24.429592 24.429592 0 0 1-24.575877-24.06388 24.429592 24.429592 0 0 1 24.64902-24.137022l118.929691 0.146285c13.531361 0 24.575877 10.825089 24.575877 24.137022 0 13.165648-11.044516 24.137022-24.649019 24.137023z m0.146285-102.692058H439.878943a24.502735 24.502735 0 0 1-24.575877-24.137022c0-13.311933 11.044516-24.137022 24.575877-24.137022l118.929692 0.146285c13.531361 0 24.575877 10.825089 24.575877 24.137022a24.429592 24.429592 0 0 1-24.575877 23.990737zM217.013772 1.025458L70.655647 1.025458c-38.76552 0-70.216792 30.719846-70.289935 68.753942L0 952.170416a69.485367 69.485367 0 0 0 69.997364 68.827085l146.431268 0.073142c38.76552 0 70.216792-30.792989 70.363077-68.753942L287.157421 69.925685a69.412224 69.412224 0 0 0-70.143649-68.753942z m-13.823931 330.165206l-118.929691-0.146285a24.429592 24.429592 0 0 1-24.649019-24.06388 24.429592 24.429592 0 0 1 24.649019-24.137022l119.002834 0.146285c13.458218 0 24.502735 10.825089 24.502734 24.137022 0 13.165648-11.044516 24.137022-24.575877 24.137023z m0-102.692058H84.333293a24.429592 24.429592 0 0 1-24.575878-24.137022c0-13.311933 11.044516-24.137022 24.575878-24.137022l118.856548 0.146285c13.531361 0 24.575877 10.825089 24.575877 24.137022a24.35645 24.35645 0 0 1-24.575877 23.990737z" fill="#ffffff" p-id="2515"></path></svg>