<?xml version="1.0" standalone="no"?><!DOCTYPE svg PUBLIC "-//W3C//DTD SVG 1.1//EN" "http://www.w3.org/Graphics/SVG/1.1/DTD/svg11.dtd"><svg t="1612766056314" class="icon" viewBox="0 0 1304 1024" version="1.1" xmlns="http://www.w3.org/2000/svg" p-id="2145" xmlns:xlink="http://www.w3.org/1999/xlink" width="163" height="128"><defs><style type="text/css"></style></defs><path d="M1210.152 307.804c-5.27-39.57-6.003-107.725 30.753-130.609 0.646-0.42 1.142-1.024 1.714-1.541 30.051-9.615 50.833-23.1 34.514-41.24L833.903 0.861l-717.674 99.781s-82.178 11.75-74.838 139.426c3.988 69.492 25.783 103.618 44.84 120.422l-58.906 17.742c-16.341 18.141 4.451 31.636 34.492 41.23 0.572 0.539 1.057 1.132 1.725 1.552 36.735 22.905 36.023 91.05 30.741 130.62-131.945 37.478-84.582 49.69-84.582 49.69l28.942 7.006C18.28 626.721-1.94 661.611 1.854 727.773c7.34 127.655 74.849 136.461 74.849 136.461l469.65 152.663 708.888-171.709s47.384-12.223-84.604-49.69c-5.303-39.517-6.036-107.65 30.763-130.61 0.679-0.409 1.186-1.023 1.725-1.54 30.051-9.605 50.833-23.079 34.492-41.241l-30.806-9.302c20.545-12.385 51.416-44.765 56.244-128.884 3.342-57.872-11.749-91.761-29.221-111.713l60.9-14.735c0 0.022 47.374-12.202-84.582-49.67z m-592.939-1.639l119.215-24.5 402.853-82.783 60.017-12.342c-19.187 35.097-18.378 83.128-15.198 113.999 0.69 6.984 1.487 13.366 2.263 18.216l-65.687 16.33-508.464 126.491 5.001-155.41zM105.15 430.403l60.017 12.342 386.878 79.538 33.803 6.92L687.2 550.028l5.001 155.433-522.595-130.027-51.524-12.805c0.755-4.85 1.563-11.232 2.286-18.227 3.158-30.85 3.977-78.902-15.22-113.999zM81.834 233.925c-0.722-33.954 5.325-58.53 17.559-71.012 7.782-7.976 16.966-9.626 23.282-9.626 3.32 0 5.713 0.464 5.875 0.464l309.237 100.815 154.279 50.295L587 461.371l-432.807-121.35-22.852-6.402a13.83 13.83 0 0 0-2.856-0.431c-1.778-0.13-44.57-4.074-46.651-99.274z m465.64 715.161L91.826 821.356a13.474 13.474 0 0 0-2.846-0.453c-1.81-0.13-44.625-4.064-46.694-99.23-0.744-34.008 5.346-58.541 17.548-71.034 7.804-7.977 16.998-9.637 23.282-9.637 3.342 0 5.735 0.442 5.907 0.442 0 0 0.011 0 0 0l463.484 151.143-5.033 156.51z m597.078-160.832c0.711 7.006 1.509 13.366 2.285 18.216L572.664 949.334l5.012-155.432 122.75-25.223 18.142 4.376 67.94-22.086 313.214-64.36 60.039-12.354c-19.187 35.097-18.389 83.15-15.21 114.01z m31.614-211.225a10.887 10.887 0 0 0-3.072 0.475l-43.299 12.126-412.348 115.615-5.045-156.51 135.287-44.119 327.572-106.819c0.032-0.022 17.225-3.837 29.847 8.99 12.212 12.482 18.27 37.047 17.57 71-2.156 95.168-44.96 99.124-46.522 99.242z" fill="#cdcdcd" p-id="2146"></path></svg>