<?xml version="1.0" standalone="no"?><!DOCTYPE svg PUBLIC "-//W3C//DTD SVG 1.1//EN" "http://www.w3.org/Graphics/SVG/1.1/DTD/svg11.dtd"><svg t="1568794288589" class="icon" viewBox="0 0 1024 1024" version="1.1" xmlns="http://www.w3.org/2000/svg" p-id="1998" xmlns:xlink="http://www.w3.org/1999/xlink" width="128" height="128"><defs><style type="text/css"></style></defs><path d="M206.912 142.464l137.856-0.608c20.416 0.544 39.328-14.72 42.4-40.8v-28.16c-0.512-22.112-17.376-40.384-37.76-40.896l-263.264 1.696c-0.384-0.032-0.672-0.192-0.992-0.192l-18.464-0.448a33.536 33.536 0 0 0-25.856 11.2c-6.592 7.104-9.056 17.056-8.8 28.16l1.984 20.032c0 0.416-1.376 0.672-1.376 1.12l1.024 286.464c0.448 22.048 17.312 35.328 37.728 35.808h27.424c20.416 0.48 36.608-18.72 36.128-40.768l-1.12-155.808 181.536 193.376a47.68 47.68 0 0 0 71.392 0 58.112 58.112 0 0 0 0-77.408l-179.84-192.768z m783.04 789.152c0-0.512 1.376-0.768 1.376-1.184h-0.064l-0.992-282.048c-0.576-22.048-17.376-35.264-37.824-35.712l-25.952-0.064c-20.32-0.512-36.576 18.784-36.064 40.832l1.184 152.48-181.504-194.688a47.68 47.68 0 0 0-71.36 0 57.984 57.984 0 0 0 0 77.408l181.504 194.528-137.76 0.608c-20.384-0.512-39.264 13.088-42.368 39.168v28.128c0.512 22.112 17.44 40.416 37.76 40.96l259.936-1.696c0.384 0 0.64 0.16 0.992 0.16l18.432 0.512a33.6 33.6 0 0 0 25.888-11.264c6.688-7.04 9.056-16.992 8.864-28.128l-2.048-20zM386.72 611.2a47.744 47.744 0 0 0-71.392 0l-181.536 193.408 1.184-153.376c0.448-22.08-15.744-41.376-36.064-40.832h-27.488c-20.448 0.576-37.312 13.728-37.76 35.84l-1.024 284.096c0 0.448 1.376 0.704 1.376 1.152L32 951.456c-0.224 11.136 2.144 21.088 8.768 28.128 6.528 7.2 15.712 11.488 25.824 11.264l18.464-0.512c0.384 0 0.64-0.16 1.056-0.16l263.264 1.696c20.384-0.576 37.248-18.816 37.76-40.96v-28.128c-3.072-26.048-21.984-39.616-42.336-39.168l-139.488-0.512 181.376-194.496c19.712-21.312 19.712-55.968 0.032-77.408z m596.48-566.944a33.28 33.28 0 0 0-25.888-11.168l-18.432 0.448c-0.384 0-0.64 0.16-1.056 0.224l-263.616-1.696c-20.448 0.512-37.248 18.784-37.76 40.896l-0.064 28.16c3.136 26.08 22.048 41.344 42.368 40.832l139.872 0.608-179.744 192.8c-19.744 21.312-19.744 55.936-0.064 77.344a47.68 47.68 0 0 0 71.36 0l181.504-194.592-1.12 156.992c-0.512 22.048 15.744 41.344 36.064 40.864h25.952c20.384-0.576 37.248-13.792 37.76-35.84l1.056-286.528c0-0.448-1.376-0.704-1.376-1.12L992 72.416c0.192-11.104-2.176-21.056-8.8-28.16z m0 0" fill="#ffffff" p-id="1999"></path></svg>