<?xml version="1.0" standalone="no"?><!DOCTYPE svg PUBLIC "-//W3C//DTD SVG 1.1//EN" "http://www.w3.org/Graphics/SVG/1.1/DTD/svg11.dtd"><svg t="1577979135588" class="icon" viewBox="0 0 1261 1024" version="1.1" xmlns="http://www.w3.org/2000/svg" p-id="4233" xmlns:xlink="http://www.w3.org/1999/xlink" width="123.14453125" height="100"><defs><style type="text/css"></style></defs><path d="M888.450687 63.079035c38.062785 0 63.475758 25.197609 63.475758 63.079035v441.405888c0 37.824751-25.390303 63.079035-63.475758 63.079035H126.956952c-38.07412 0-63.475758-25.254284-63.475758-63.079035V126.15807c0-37.881426 25.390303-63.079035 63.475758-63.079035z m0-63.079035H126.956952a126.951516 126.951516 0 0 0-126.951517 126.15807v441.405888a126.951516 126.951516 0 0 0 126.951517 126.15807h761.493735a126.951516 126.951516 0 0 0 126.951516-126.15807V126.15807A126.951516 126.951516 0 0 0 888.450687 0zM634.615663 819.880097v-63.147044H380.78064v63.079035h-190.427275v63.079034h634.632898v-63.079034H634.615663zM190.41004 378.338189h126.951517v189.169095h-126.951517z m253.823688-189.293779h126.951517v378.462874h-126.951517z m253.835024 126.15807h126.951516v252.304804h-126.951516z m0 0" p-id="4234" fill="#ffffff"></path></svg>