<?xml version="1.0" standalone="no"?><!DOCTYPE svg PUBLIC "-//W3C//DTD SVG 1.1//EN" "http://www.w3.org/Graphics/SVG/1.1/DTD/svg11.dtd"><svg t="1568734163796" class="icon" viewBox="0 0 1024 1024" version="1.1" xmlns="http://www.w3.org/2000/svg" p-id="8042" xmlns:xlink="http://www.w3.org/1999/xlink" width="128" height="128"><defs><style type="text/css"></style></defs><path d="M512.512 439.296c-40.448 0-72.704 32.768-72.704 72.704 0 27.136 14.848 50.688 36.352 62.976v447.488h72.704v-447.488c22.016-12.8 36.352-36.352 36.352-62.976 0.512-39.936-32.256-72.704-72.704-72.704z" fill="#ffffff" p-id="8043"></path><path d="M512.512 293.376c-120.832 0-218.624 97.792-218.624 218.624 0 60.416 24.576 115.2 64 154.624l33.792-33.792c-31.744-31.232-51.2-74.752-51.2-122.368 0-95.232 77.312-172.032 172.032-172.032 95.232 0 172.032 77.312 172.032 172.032 0 47.616-19.456 91.136-51.2 122.368l33.28 33.28c39.424-39.424 64-94.208 64-154.624 0.512-119.808-97.28-218.112-218.112-218.112z" fill="#ffffff" p-id="8044"></path><path d="M512.512 147.456c-201.216 0-364.544 163.328-364.544 364.544 0 100.352 40.96 192 107.008 258.048l35.84-35.84c-57.344-56.832-92.672-136.192-92.672-223.232 0-174.08 140.8-314.88 314.88-314.88s314.88 140.8 314.88 314.88c0 87.04-35.328 166.4-92.672 223.232l35.84 35.84c66.048-66.048 107.008-157.184 107.008-258.048-1.024-201.216-164.352-364.544-365.568-364.544z" fill="#ffffff" p-id="8045"></path><path d="M512.512 2.048C230.912 2.048 2.048 230.4 2.048 512.512c0 140.8 57.344 268.8 149.504 360.96l36.352-36.352c-83.456-83.456-135.168-198.656-135.168-325.632 0-253.952 205.824-459.776 459.776-459.776 253.952 0 459.776 205.824 459.776 459.776 0 127.488-51.712 242.688-135.168 325.632l36.352 36.352c92.672-92.16 149.504-219.648 149.504-360.96C1022.976 230.4 794.624 2.048 512.512 2.048z" fill="#ffffff" p-id="8046"></path></svg>