<?xml version="1.0" standalone="no"?><!DOCTYPE svg PUBLIC "-//W3C//DTD SVG 1.1//EN" "http://www.w3.org/Graphics/SVG/1.1/DTD/svg11.dtd"><svg t="1568734086585" class="icon" viewBox="0 0 1024 1024" version="1.1" xmlns="http://www.w3.org/2000/svg" p-id="7260" xmlns:xlink="http://www.w3.org/1999/xlink" width="128" height="128"><defs><style type="text/css"></style></defs><path d="M922.88 704a104.747 104.747 0 0 0-50.133-67.84 95.147 95.147 0 0 0-55.254-13.867 109.013 109.013 0 0 0-70.826 25.387l-83.627-48.213a184.747 184.747 0 0 0 7.893-46.934 159.147 159.147 0 0 0-128-154.88v-95.36a110.293 110.293 0 1 0-137.6-102.826 110.08 110.08 0 0 0 73.6 102.4v96.213a158.72 158.72 0 0 0-126.08 153.173 144.213 144.213 0 0 0 9.814 50.347l-85.334 48.853a113.707 113.707 0 0 0-71.466-26.666 126.08 126.08 0 0 0-55.254 13.866A109.653 109.653 0 0 0 101.973 704a106.667 106.667 0 0 0 103.254 130.133 121.387 121.387 0 0 0 55.04-13.653A106.667 106.667 0 0 0 310.4 704l82.56-48.64a163.413 163.413 0 0 0 115.84 50.987h1.707a153.387 153.387 0 0 0 114.346-50.987L707.627 704a109.867 109.867 0 0 0 49.92 116.907 94.507 94.507 0 0 0 49.92 14.08h5.333a109.867 109.867 0 0 0 93.867-54.614A100.053 100.053 0 0 0 922.88 704z m-139.947 4.267v-1.707a47.147 47.147 0 0 1 36.907-21.333 37.547 37.547 0 0 1 21.333 6.826 42.667 42.667 0 0 1-21.333 81.28 36.907 36.907 0 0 1-21.333-7.253 45.867 45.867 0 0 1-21.334-28.16 39.253 39.253 0 0 1 5.76-30.507zM512 456.533a94.933 94.933 0 1 1-95.147 94.507A94.933 94.933 0 0 1 512 456.533z m0-215.253h-1.707A44.587 44.587 0 0 1 512 152.107a45.653 45.653 0 0 1 32 14.08 44.587 44.587 0 0 1-32 75.093zM227.2 766.507a39.253 39.253 0 0 1-21.333 6.4 43.733 43.733 0 0 1-37.974-22.827 42.667 42.667 0 0 1-4.693-32.64 42.667 42.667 0 0 1 21.333-26.88 34.773 34.773 0 0 1 19.84-6.4 46.933 46.933 0 0 1 42.667 55.893 42.667 42.667 0 0 1-19.84 26.454z" fill="#ffffff" p-id="7261"></path><path d="M692.053 823.68h-7.466l-8.96 3.413a330.24 330.24 0 0 1-330.454 0l-5.973-3.413h-9.387a29.867 29.867 0 0 0-23.466 8.96 30.72 30.72 0 0 0-8.96 23.04 34.347 34.347 0 0 0 16.213 28.8 380.587 380.587 0 0 0 391.467 0 36.693 36.693 0 0 0 18.56-28.8 32.427 32.427 0 0 0-31.574-32z m-23.68-554.88a325.12 325.12 0 0 1 165.76 282.667v3.2a29.44 29.44 0 0 0 4.48 21.333 35.627 35.627 0 0 0 24.96 14.293 33.493 33.493 0 0 0 32.427-28.8v-10.026a385.28 385.28 0 0 0-198.4-338.134 32.64 32.64 0 0 0-45.013 13.44 31.147 31.147 0 0 0 0 24.32 27.307 27.307 0 0 0 15.786 17.707zM157.867 590.72a38.4 38.4 0 0 0 22.4-10.88 27.52 27.52 0 0 0 8.533-22.613v-5.334a325.333 325.333 0 0 1 166.187-283.306 32 32 0 0 0 15.573-20.054 30.72 30.72 0 0 0-2.987-24.106 37.333 37.333 0 0 0-19.84-15.574 21.333 21.333 0 0 0-8.96 0 31.36 31.36 0 0 0-15.786 4.267 395.307 395.307 0 0 0-197.12 338.347v12.586a32.853 32.853 0 0 0 32 26.667z" fill="#ffffff" p-id="7262"></path></svg>