<?xml version="1.0" standalone="no"?><!DOCTYPE svg PUBLIC "-//W3C//DTD SVG 1.1//EN" "http://www.w3.org/Graphics/SVG/1.1/DTD/svg11.dtd"><svg t="1618109714548" class="icon" viewBox="0 0 1024 1024" version="1.1" xmlns="http://www.w3.org/2000/svg" p-id="2871" xmlns:xlink="http://www.w3.org/1999/xlink" width="128" height="128"><defs><style type="text/css"></style></defs><path d="M209.003789 401.084632l29.749895-44.948211 107.843369 71.464421-29.749895 44.894316zM682.469053 546.600421l-14.551579-51.846737 124.496842-35.031579 14.551579 51.846737zM315.068632 812.840421l-40.367158-35.678316 85.692631-96.902737 40.421053 35.732211zM597.962105 390.251789l-46.672842-26.947368 43.11579-74.64421 46.672842 26.947368zM615.639579 728.764632l41.121684-34.816 83.536842 98.735157-41.121684 34.816z" fill="#bfcbd9" p-id="2872"></path><path d="M501.221053 765.305263c-118.568421 0-215.578947-97.010526-215.578948-215.578947s97.010526-215.578947 215.578948-215.578948 215.578947 97.010526 215.578947 215.578948-97.010526 215.578947-215.578947 215.578947z m0-377.263158c-91.621053 0-161.684211 70.063158-161.684211 161.684211s70.063158 161.684211 161.684211 161.68421 161.684211-70.063158 161.68421-161.68421-75.452632-161.684211-161.68421-161.684211zM167.073684 452.715789c-59.284211 0-107.789474-48.505263-107.789473-107.789473s48.505263-107.789474 107.789473-107.789474 107.789474 48.505263 107.789474 107.789474-48.505263 107.789474-107.789474 107.789473z m0-161.68421c-32.336842 0-53.894737 21.557895-53.894737 53.894737s21.557895 53.894737 53.894737 53.894737 53.894737-21.557895 53.894737-53.894737-26.947368-53.894737-53.894737-53.894737zM253.305263 948.547368c-59.284211 0-107.789474-48.505263-107.789474-107.789473s48.505263-107.789474 107.789474-107.789474 107.789474 48.505263 107.789474 107.789474-48.505263 107.789474-107.789474 107.789473z m0-161.68421c-32.336842 0-53.894737 21.557895-53.894737 53.894737s21.557895 53.894737 53.894737 53.894737 53.894737-21.557895 53.894737-53.894737-21.557895-53.894737-53.894737-53.894737zM856.926316 576.673684c-59.284211 0-107.789474-48.505263-107.789474-107.789473s48.505263-107.789474 107.789474-107.789474 107.789474 48.505263 107.789473 107.789474-48.505263 107.789474-107.789473 107.789473z m0-161.68421c-32.336842 0-53.894737 21.557895-53.894737 53.894737s21.557895 53.894737 53.894737 53.894736 53.894737-21.557895 53.894737-53.894736-21.557895-53.894737-53.894737-53.894737zM662.905263 350.315789C592.842105 350.315789 528.168421 291.031579 528.168421 215.578947s59.284211-134.736842 134.736842-134.736842 134.736842 59.284211 134.736842 134.736842-59.284211 134.736842-134.736842 134.736842z m0-215.578947c-43.115789 0-80.842105 37.726316-80.842105 80.842105s37.726316 80.842105 80.842105 80.842106 80.842105-37.726316 80.842105-80.842106-32.336842-80.842105-80.842105-80.842105zM749.136842 921.6c-43.115789 0-80.842105-37.726316-80.842105-80.842105s37.726316-80.842105 80.842105-80.842106 80.842105 37.726316 80.842105 80.842106-37.726316 80.842105-80.842105 80.842105z m0-107.789474c-16.168421 0-26.947368 10.778947-26.947368 26.947369s10.778947 26.947368 26.947368 26.947368 26.947368-10.778947 26.947369-26.947368-10.778947-26.947368-26.947369-26.947369z" fill="#bfcbd9" p-id="2873"></path></svg>