<?xml version="1.0" standalone="no"?><!DOCTYPE svg PUBLIC "-//W3C//DTD SVG 1.1//EN" "http://www.w3.org/Graphics/SVG/1.1/DTD/svg11.dtd"><svg t="1575642859183" class="icon" viewBox="0 0 1024 1024" version="1.1" xmlns="http://www.w3.org/2000/svg" p-id="2168" xmlns:xlink="http://www.w3.org/1999/xlink" width="100" height="100"><defs><style type="text/css"></style></defs><path d="M560.9984 956.945067H100.369067a33.501867 33.501867 0 0 1-33.4848-33.450667V114.1248c0-18.466133 15.018667-33.450667 33.4848-33.450667h819.575466a33.450667 33.450667 0 0 1 33.450667 33.450667v453.751467c0 18.432 15.0016 33.450667 33.450667 33.450666 18.432 0 33.450667-15.018667 33.450666-33.450666V114.261333a100.437333 100.437333 0 0 0-100.352-100.352H100.369067A100.437333 100.437333 0 0 0 0 114.261333V923.648A100.437333 100.437333 0 0 0 100.352 1024h460.458667a33.467733 33.467733 0 0 0 33.4848-33.4336c0-18.602667-14.848-33.604267-33.314134-33.604267" fill="#ffffff" p-id="2169"></path><path d="M550.253609 233.411289c-56.696219-4.412585-87.059167-2.051516-91.126967 7.084913-6.108642 13.720235-70.63179 80.176411-83.716779 109.565778-13.078047 29.373775-9.636482 87.437163 17.211522 99.390664 26.816822 11.939619 84.663536 13.894031 97.283435-14.450726 8.413266-18.896505 36.531771-57.714906 84.312158-116.399779l-23.956427-85.206441z" fill="#ffffff" p-id="2170"></path><path d="M806.253609 216.344623c-56.696219-4.412585-87.059167-2.051516-91.126967 7.084912-6.108642 13.720235-70.63179 80.176411-83.716779 109.565778-13.078047 29.373775-9.636482 87.437163 17.211522 99.390665 26.816822 11.939619 84.663536 13.894031 97.283435-14.450727 8.413266-18.896505 36.531771-57.714906 84.312158-116.399779l-23.956427-85.206441z" fill="#ffffff" p-id="2171"></path><path d="M742.4 776.533333m-145.066667 0a145.066667 145.066667 0 1 0 290.133334 0 145.066667 145.066667 0 1 0-290.133334 0Z" fill="#ffffff" p-id="2172"></path><path d="M747.349333 894.685867c-72.430933 0-131.037867-58.999467-131.037866-131.925334 0-72.96 58.606933-131.959467 131.0208-131.959466 72.430933 0 131.072 58.999467 131.072 131.959466 0 72.925867-58.641067 131.925333-131.072 131.925334m236.526933 75.2128l-92.552533-93.354667a24.302933 24.302933 0 0 0-6.7584-4.7104c59.784533-76.2368 47.018667-186.88-28.7232-247.108267A173.841067 173.841067 0 0 0 610.4576 653.653333c-59.818667 76.2368-47.069867 186.88 28.672 247.074134a173.738667 173.738667 0 0 0 216.695467 0c1.058133 2.577067 2.730667 4.846933 4.676266 6.826666l92.552534 93.371734c8.704 8.2944 22.528 8.021333 30.958933-0.938667a22.050133 22.050133 0 0 0-0.1536-30.088533M225.8944 669.815467c269.7216-96.9728 580.488533-121.787733 580.488533-121.787734-35.8912 0-102.929067 6.656-102.929066 6.656 18.039467-3.328 50.807467-6.656 50.807466-6.656-372.8384 23.1424-574.0544 121.787733-574.0544 121.787734s-13.056 8.192 0 14.848c6.485333 3.328 45.687467-14.848 45.687467-14.848m541.2864-318.344534l-39.253333 46.165334c-9.728 9.813333-35.8912 31.300267-48.981334 32.938666-13.073067 1.706667-18.005333-24.644267-18.005333-32.938666-3.293867-47.9744 26.129067-115.319467 101.2736-171.3152 0 3.191467 1.672533 8.157867 4.9664 8.157866 4.949333 0 14.711467-18.141867 26.112-19.6608 13.090133-1.672533 19.694933 14.813867 19.694933 24.661334 3.345067 29.525333-29.422933 87.159467-45.806933 111.991466m63.6928-169.642666c-1.621333-9.966933-26.112-29.661867-44.014933-28.16-27.784533 3.345067-93.320533 46.1824-127.5904 95.505066-29.457067 41.147733-55.586133 100.488533-50.773334 151.466667 4.949333 37.819733 32.768 77.329067 73.642667 69.137067 107.861333-19.6608 173.397333-146.466133 163.498667-233.7792-1.672533-18.141867-6.656-41.1648-27.835734-44.322134 3.328-3.328 13.073067-4.846933 13.073067-9.847466m-317.201067 197.461333L474.453333 425.472c-9.7792 9.847467-35.9424 31.317333-49.032533 32.989867-13.038933 1.655467-18.005333-24.661333-18.005333-32.989867-3.310933-47.803733 26.112-116.957867 101.4272-171.281067 0 3.328 1.672533 8.174933 4.9664 8.174934 4.949333 0 14.711467-18.176 26.129066-19.831467 13.073067-1.672533 19.677867 14.813867 19.677867 24.661333 3.1744 29.7984-29.576533 87.4496-45.960533 112.128m63.863466-169.472c-1.518933-9.8304-26.1632-29.6448-44.032-27.989333-29.457067 3.310933-94.8224 46.148267-129.245866 93.7984-29.422933 41.147733-55.586133 100.488533-50.773334 151.483733 6.587733 39.492267 34.269867 77.312 76.765867 69.154134 106.24-18.176 171.776-146.619733 161.860267-232.1408-1.655467-18.141867-6.485333-41.147733-27.648-44.475734 3.293867-3.328 13.073067-4.846933 13.073066-9.847466M154.077867 492.9536c3.293867 23.1424 22.818133 24.661333 40.874666 32.989867 1.6384 3.328 8.106667 4.9664 9.728 4.9664 3.345067 0 6.656-3.310933 4.983467-6.656 0-4.983467-3.293867-9.8304-3.293867-16.4864-3.140267-29.661867 26.146133-98.645333 39.202134-126.634667 57.258667-128.477867 57.258667-126.8224 55.620266-139.963733 0-6.690133-13.090133-29.525333-24.490666-29.525334-13.090133 1.501867-60.552533 37.6832-73.642667 47.6672-9.898667 8.157867-18.039467 13.1584-18.039467 26.333867 0 3.328 0 9.847467 4.949334 9.847467 6.929067-2.730667 12.765867-6.980267 17.288533-12.424534l35.003733-15.598933h1.672534A1199.104 1199.104 0 0 0 175.274667 395.946667c-9.949867 21.333333-24.490667 74.001067-21.1968 97.006933" fill="#ffffff" p-id="2173"></path></svg>