<?xml version="1.0" standalone="no"?><!DOCTYPE svg PUBLIC "-//W3C//DTD SVG 1.1//EN" "http://www.w3.org/Graphics/SVG/1.1/DTD/svg11.dtd"><svg t="1575254292730" class="icon" viewBox="0 0 1024 1024" version="1.1" xmlns="http://www.w3.org/2000/svg" p-id="1667" xmlns:xlink="http://www.w3.org/1999/xlink" width="100" height="100"><defs><style type="text/css"></style></defs><path d="M333.5 331.7c32.6 0 59.1-26.5 59.1-59.1V157.3c0-32.6-26.5-59.1-59.1-59.1s-59.1 26.5-59.1 59.1v115.3c0 32.7 26.4 59.1 59.1 59.1zM683.8 331.7c32.6 0 59.1-26.5 59.1-59.1V157.3c0-32.6-26.5-59.1-59.1-59.1s-59.1 26.5-59.1 59.1v115.3c0 32.7 26.5 59.1 59.1 59.1z" fill="#ffffff" p-id="1668"></path><path d="M856.1 244.3h-92.7v36.8c0 44-35.6 79.6-79.6 79.6-44 0-79.6-35.6-79.6-79.6v-36.8H413.1v36.8c0 44-35.6 79.6-79.6 79.6-44 0-79.6-35.6-79.6-79.6v-36.8h-92.7c-36.7 0-66.4 29.7-66.4 66.4v548.6c0 36.7 29.7 66.4 66.4 66.4h694.9c36.7 0 66.4-29.7 66.4-66.4V310.8c0-36.7-29.7-66.5-66.4-66.5zM341.3 434.4c47.5 0 85.9 38.5 85.9 85.9 0 47.5-38.5 85.9-85.9 85.9-47.5 0-85.9-38.5-85.9-85.9 0-47.4 38.4-85.9 85.9-85.9z m168.2 357.8H174.6v-0.1c-0.5 0.1-1 0.1-1.5 0.1-5.7 0-10.3-4.6-10.3-10.3 0-40.2 10.7-79 30.8-112.1 19.2-31.5 45.7-56 76.9-71 0.4-0.4 0.9-0.8 1.4-1.1 4.7-3.2 11.1-1.9 14.3 2.8 0.3 0.5 25.7 37.3 55.1 37.3 15 0 29.1-9.9 38.2-18.2 10.5-9.5 16.9-18.9 16.9-19 3.2-4.7 9.6-5.9 14.3-2.8 0.5 0.3 0.9 0.7 1.4 1.1 31.1 15 57.7 39.5 76.9 71 20.2 33.1 30.8 71.9 30.8 112.1 0 5.6-4.6 10.2-10.3 10.2zM813 713.6H609c-15.7 0-28.4-12.7-28.4-28.4s12.7-28.4 28.4-28.4h204c15.7 0 28.4 12.7 28.4 28.4s-12.7 28.4-28.4 28.4z m0-146.7H525.4c-15.7 0-28.4-12.7-28.4-28.4s12.7-28.4 28.4-28.4H813c15.7 0 28.4 12.7 28.4 28.4s-12.7 28.4-28.4 28.4z" fill="#ffffff" p-id="1669"></path></svg>