<?xml version="1.0" standalone="no"?><!DOCTYPE svg PUBLIC "-//W3C//DTD SVG 1.1//EN" "http://www.w3.org/Graphics/SVG/1.1/DTD/svg11.dtd"><svg t="1577979065861" class="icon" viewBox="0 0 1204 1024" version="1.1" xmlns="http://www.w3.org/2000/svg" p-id="3432" xmlns:xlink="http://www.w3.org/1999/xlink" width="117.578125" height="100"><defs><style type="text/css"></style></defs><path d="M1145.012706 5.601882L46.260706 430.08c-61.921882 23.913412-60.355765 58.669176 3.132235 77.522824l265.517177 78.908235 107.941647 321.536c14.095059 42.104471 51.019294 50.959059 82.642823 19.636706l139.203765-138.11953 274.913882 201.667765c35.719529 26.202353 72.402824 12.408471 82.040471-31.081412L1202.236235 55.296c9.637647-43.369412-15.962353-65.656471-57.223529-49.694118zM977.799529 210.221176l-468.630588 418.032942a60.235294 60.235294 0 0 0-17.287529 33.430588l-20.660706 194.740706c-2.409412 21.865412-9.938824 22.768941-16.865882 1.807059L363.700706 584.583529a26.142118 26.142118 0 0 1 10.782118-29.515294l594.341647-356.894117c37.948235-22.768941 41.923765-17.468235 9.035294 12.047058z" p-id="3433" fill="#ffffff"></path></svg>